<svg width="155" height="81" viewBox="0 0 155 81" fill="none" xmlns="http://www.w3.org/2000/svg">
<g clip-path="url(#clip0_3635_163)">
<path d="M123.574 0.544575C115.956 1.72794 109.512 6.88285 106.877 13.902C105.367 17.9546 105.249 22.7042 106.558 26.8379C108.539 33.1275 113.673 38.2176 120.184 40.3249C124.463 41.7028 129.699 41.6542 134.062 40.1628C141.127 37.7637 146.513 31.6199 147.839 24.4387C148.158 22.7528 148.191 19.2514 147.906 17.6628L147.705 16.4956H144.281H140.858V17.2251V17.9546H143.61H146.362L146.496 19.2028C146.849 22.996 145.808 27.3242 143.711 30.6635C137.804 40.1304 124.816 42.7079 115.402 36.2885C109.193 32.0576 106.021 24.2766 107.565 17.063C107.934 15.3123 108.438 13.9668 109.361 12.2161C114.21 3.00856 125.756 -0.752258 135.388 3.73803C137.653 4.80791 139.516 6.12096 141.227 7.87168L142.503 9.20094H143.459H144.399L143.845 8.43905C142.922 7.15842 140.472 4.92139 138.861 3.88392C136.378 2.27909 133.894 1.25783 131.041 0.690468C129.128 0.301418 125.537 0.236576 123.574 0.544575Z" fill="url(#paint0_linear_3635_163)"/>
<path d="M113.455 12.4431C113.522 12.5079 115.033 13.3671 116.795 14.3559L120.016 16.1553L128.927 16.058C133.844 16.0094 137.871 15.9121 137.921 15.8635C137.955 15.7986 132.434 14.9881 125.655 14.0479C118.875 13.1077 113.388 12.3783 113.455 12.4431Z" fill="#343434"/>
<path d="M113.203 13.4966C113.572 14.1451 126.846 35.0889 126.963 35.2186C127.047 35.3158 127.098 32.9167 127.047 29.0586C126.98 21.9909 126.98 21.8774 125.839 20.7913C124.966 19.9484 123.859 19.5917 121.594 19.4621L119.832 19.3648L118.64 18.2949C115.133 15.1339 113.119 13.3507 113.203 13.4966Z" fill="#343434"/>
<path d="M134.397 16.8845C131.494 17.5654 129.296 19.8511 128.524 22.9959C128.323 23.8226 128.272 25.2329 128.272 29.9015V35.7859H129.867H131.461V30.5499C131.461 27.6807 131.545 24.8601 131.645 24.2765C131.981 22.2016 133.156 20.4995 134.733 19.8024C135.455 19.462 135.824 19.4134 137.552 19.4134H139.516V18.0355V16.6576L137.384 16.6738C136.193 16.6738 134.851 16.7711 134.397 16.8845Z" fill="#343434"/>
<path d="M51.4167 44.2965V47.4575H49.2352H47.0537V49.4838V51.5101H49.2352H51.4167V57.7025C51.4167 61.1229 51.5006 64.4136 51.5845 65.0134C52.004 67.753 53.4807 69.293 56.4509 70.0062C57.6256 70.2818 60.8307 70.2818 62.5423 70.0062L63.8344 69.7793V67.7205V65.6618L62.794 65.8726C61.0656 66.2292 59.1694 66.1643 58.2968 65.7267C56.8201 64.9972 56.8704 65.3214 56.8201 57.9781L56.7697 51.5101H60.1427H63.4988V49.4838V47.4575H60.1427H56.7865V44.2965V41.1355H54.1016H51.4167V44.2965Z" fill="#343434"/>
<path d="M89.8447 47.2144C85.3475 48.3977 82.4612 51.8343 81.7732 56.7785C81.5215 58.6103 81.6725 61.0743 82.1088 62.7439C83.8372 69.1633 90.5831 71.6921 100.131 69.4875L101.591 69.147V67.218C101.591 66.1481 101.541 65.289 101.457 65.289C101.39 65.289 100.584 65.4835 99.6614 65.7104C97.631 66.213 93.8721 66.4237 92.3283 66.1157C89.3916 65.5159 87.4451 63.5382 87.0591 60.7663L86.9417 59.9395H94.6776H102.397L102.464 58.9993C102.548 57.4431 102.313 55.0278 101.927 53.6823C101.021 50.4889 99.1748 48.495 96.1039 47.4413C94.795 46.9874 91.204 46.8577 89.8447 47.2144ZM94.5098 51.1697C95.9026 51.8505 97.0604 53.8606 97.0604 55.5789V56.2111H92.2276C89.5595 56.2111 87.3444 56.1625 87.2941 56.1139C87.143 55.9842 87.5961 54.2983 87.9821 53.423C88.4351 52.4665 89.8112 51.267 90.8348 50.9428C91.8584 50.6186 93.6204 50.732 94.5098 51.1697Z" fill="#343434"/>
<path d="M7.552 47.3765C4.78319 48.1384 2.7695 49.8242 1.42705 52.499C0.269179 54.8495 -0.0160933 56.1787 0.000687425 59.2911C0.0174681 61.3174 0.084591 62.0469 0.386644 63.1006C1.56129 67.3639 4.22943 69.763 8.40782 70.3304C10.5725 70.6222 12.9218 70.0873 15.0865 68.7742C15.7578 68.3689 16.3451 68.0447 16.4122 68.0447C16.58 68.0447 16.5297 70.1359 16.3451 71.2706C15.9088 73.7832 14.3146 75.2746 11.3109 76.0041C10.2705 76.2472 6.74653 76.2958 4.73285 76.1013L3.42395 75.9716V77.9169C3.42395 80.1701 3.18902 79.9432 5.68935 80.2025C8.70987 80.5268 11.6129 80.316 14.1636 79.6028C18.0232 78.5329 20.3053 76.4255 21.329 72.9889C21.5807 72.1136 21.6142 70.7681 21.6814 59.8099L21.7317 47.6034L19.416 47.652L17.1002 47.7007L17.0499 48.187C17.0331 48.4464 16.966 49.0623 16.9156 49.5325L16.8317 50.3754L15.7074 49.4028C15.0865 48.8354 14.0629 48.1546 13.3413 47.8141C12.1499 47.2468 11.9989 47.2144 10.2369 47.1819C9.04549 47.1657 8.07221 47.2306 7.552 47.3765ZM13.4253 51.575C14.6838 52.1261 15.9591 53.0663 16.2612 53.6337C16.6304 54.2983 16.6304 63.4734 16.2612 64.138C15.9591 64.7216 14.2811 65.8239 13.1232 66.1968C11.8814 66.602 9.93486 66.5696 8.9448 66.1481C6.864 65.2565 5.77325 63.4572 5.43764 60.3772C5.15236 57.6214 5.72291 54.736 6.88078 53.115C7.43454 52.3531 8.55885 51.5588 9.53213 51.2508C10.539 50.9265 12.2842 51.0724 13.4253 51.575Z" fill="#ED1A65"/>
<path d="M77.1583 47.7008C75.2621 48.1061 73.9029 48.9652 72.6108 50.5863L71.8053 51.5751L71.6039 50.3755C71.4865 49.7109 71.3522 48.9166 71.3019 48.6248L71.2012 48.1061H69.0197H66.855L66.8885 59.1616L66.9389 70.2333L69.5902 70.2819L72.2248 70.3306V62.663V55.0117L73.0806 54.2174C74.507 52.9044 77.108 51.9966 79.5244 51.9966H80.4641L80.4138 49.7595L80.3635 47.5387L79.2727 47.5063C78.6686 47.4901 77.7121 47.5711 77.1583 47.7008Z" fill="#343434"/>
<path d="M114.747 47.7008C110.233 48.641 106.458 52.4018 105.635 56.7624C105.518 57.346 105.451 60.1991 105.451 64.0247V70.3306L107.934 70.2819L110.401 70.2333L110.485 63.6681L110.554 58.2917C110.564 57.5088 110.752 56.7375 111.106 56.033C111.777 54.7361 113.119 53.4555 114.462 52.8395C115.335 52.4505 115.62 52.4018 117.281 52.4018C119.026 52.4018 119.194 52.4343 120.235 52.9206C121.577 53.569 122.903 54.8658 123.54 56.1627C123.839 56.7824 123.998 57.4564 124.007 58.1398L124.077 63.6681L124.161 70.2333L126.645 70.2819L129.128 70.3306L129.078 63.4736L129.038 57.9906C129.031 57.0808 128.869 56.1784 128.558 55.3197C126.51 49.7271 120.62 46.4688 114.747 47.7008Z" fill="#343434"/>
<path d="M36.9685 47.4575C35.4582 47.2792 35.4918 47.2792 34.1325 47.4575C29.35 48.0573 25.4233 51.3643 24.1312 55.887C23.7117 57.3297 23.7117 60.28 24.1144 61.7227C25.9268 68.1907 32.9914 71.7894 39.5191 69.601C41.2811 69.0174 42.4557 68.2717 43.9492 66.829C46.2482 64.6244 47.3893 61.9497 47.3893 58.8048C47.3893 52.9853 42.9927 48.187 36.9685 47.4575ZM35.623 65.5028C31.7894 65.5028 28.6816 62.5006 28.6816 58.7974C28.6816 55.0941 31.7894 52.0919 35.623 52.0919C39.4565 52.0919 42.5643 55.0941 42.5643 58.7974C42.5643 62.5006 39.4565 65.5028 35.623 65.5028Z" fill="#ED1A65"/>
<path d="M154.987 50.4079L154.92 41.1356H152.504H150.087V45.1882C150.087 47.409 150.054 49.2408 150.003 49.2408C149.953 49.2408 149.399 48.9976 148.778 48.6896C145.724 47.1983 142.435 46.9713 139.297 48.025C134.145 49.7433 130.873 54.8334 131.477 60.1342C131.796 62.8413 132.803 64.8028 134.985 66.9101C137.3 69.1634 139.868 70.2008 143.207 70.217C145.338 70.217 146.563 69.9415 148.661 68.9526C152.05 67.3802 154.467 64.203 154.92 60.7502C154.987 60.1666 155.021 55.5142 154.987 50.4079ZM143.24 65.5554C139.406 65.5554 136.298 62.5532 136.298 58.85C136.298 55.1467 139.406 52.1445 143.24 52.1445C147.074 52.1445 150.181 55.1467 150.181 58.85C150.181 62.5532 147.073 65.5554 143.24 65.5554Z" fill="#343434"/>
</g>
<defs>
<linearGradient id="paint0_linear_3635_163" x1="105.654" y1="20.8358" x2="109.899" y2="20.8358" gradientUnits="userSpaceOnUse">
<stop stop-color="#ED1A65"/>
<stop offset="1" stop-color="#070808"/>
</linearGradient>
<clipPath id="clip0_3635_163">
<rect width="155" height="80" fill="white" transform="translate(0 0.350098)"/>
</clipPath>
</defs>
</svg>
